<?xml version="1.0" standalone="no"?>
<!DOCTYPE svg PUBLIC "-//W3C//DTD SVG 20010904//EN"
 "http://www.w3.org/TR/2001/REC-SVG-20010904/DTD/svg10.dtd">
<svg version="1.0" xmlns="http://www.w3.org/2000/svg"
 width="1024.000000pt" height="1024.000000pt" viewBox="0 0 1024.000000 1024.000000"
 preserveAspectRatio="xMidYMid meet">
<metadata>
Created by potrace 1.14, written by Peter Selinger 2001-2017
</metadata>
<g transform="translate(0.000000,1024.000000) scale(0.100000,-0.100000)"
fill="#000000" stroke="none">
<path d="M6928 10235 c-1 -1 -37 -6 -78 -9 -88 -7 -137 -13 -206 -27 -28 -5
-63 -12 -79 -15 -16 -3 -76 -20 -134 -39 -142 -45 -225 -66 -421 -109 -188
-41 -167 -37 -325 -65 -197 -35 -274 -51 -400 -83 -66 -16 -127 -31 -136 -33
-67 -14 -390 -124 -474 -160 -16 -8 -56 -25 -88 -39 -32 -14 -60 -26 -64 -26
-12 0 -320 -158 -417 -214 -141 -82 -342 -215 -476 -314 -111 -82 -310 -239
-320 -252 -3 -3 -39 -35 -80 -70 -41 -35 -97 -84 -125 -109 -64 -58 -460 -455
-500 -501 -17 -19 -60 -69 -95 -110 -36 -41 -67 -77 -70 -80 -3 -3 -34 -41
-69 -85 -34 -44 -71 -90 -81 -101 -44 -53 -227 -317 -292 -423 -39 -64 -78
-127 -87 -141 -72 -115 -254 -488 -331 -679 -99 -248 -241 -701 -266 -850 -3
-14 -7 -32 -9 -38 -26 -75 -26 -958 0 -1280 2 -27 7 -93 10 -148 3 -55 8 -118
10 -140 2 -22 7 -71 10 -110 10 -114 21 -219 30 -265 2 -14 6 -45 9 -70 3 -25
8 -56 11 -70 3 -14 9 -48 14 -75 15 -79 36 -131 87 -216 131 -217 317 -370
555 -457 85 -32 272 -80 332 -86 17 -2 68 -9 112 -14 44 -6 105 -14 135 -17
46 -5 212 -32 245 -40 6 -1 28 -5 50 -9 89 -17 363 -88 473 -122 64 -20 153
-47 197 -61 93 -28 296 -79 350 -87 21 -4 40 -8 44 -10 3 -2 31 -7 61 -11 30
-4 57 -8 60 -10 3 -2 44 -9 90 -15 47 -6 96 -13 110 -15 32 -5 147 -15 330
-30 154 -12 197 -16 225 -20 17 -2 53 -7 80 -10 75 -9 194 -35 200 -45 3 -4
-6 -55 -19 -112 -14 -56 -27 -114 -30 -128 -25 -132 -130 -284 -356 -515 -185
-189 -215 -222 -283 -318 -85 -120 -125 -228 -131 -360 -12 -234 331 -599 667
-712 177 -59 321 -79 567 -80 202 0 298 10 437 46 157 40 343 130 528 256 61
42 112 79 115 82 3 3 28 24 55 45 89 70 278 268 357 373 147 195 193 292 274
576 67 232 123 481 159 707 3 19 10 60 15 90 5 30 12 73 15 95 4 22 8 51 10
65 3 14 7 43 10 65 4 22 8 51 10 65 2 14 7 48 10 75 3 28 8 62 11 77 3 15 7
39 9 55 20 151 36 276 41 313 3 25 9 72 14 105 5 33 12 80 15 105 3 25 8 56
10 70 2 14 9 63 15 110 6 47 13 96 15 110 3 14 7 50 10 80 4 30 8 62 10 70 2
8 7 38 11 65 3 28 8 59 10 70 2 10 6 37 9 60 6 38 20 129 29 185 2 14 8 48 12
75 4 28 8 55 9 60 1 6 5 33 9 60 3 28 8 61 11 75 6 36 33 207 41 260 3 25 8
52 9 60 1 8 6 35 10 60 12 75 14 83 34 153 40 136 66 164 176 181 188 30 266
39 440 51 39 2 111 7 160 11 123 9 162 12 219 13 78 2 53 11 -69 25 -115 14
-133 16 -185 21 -30 3 -66 8 -80 10 -14 2 -54 7 -90 10 -36 3 -76 8 -90 10
-73 10 -111 15 -165 20 -33 3 -80 7 -105 10 -46 4 -171 14 -270 20 -466 30
-1445 25 -1785 -10 -38 -4 -88 -9 -110 -11 -148 -13 -300 -69 -300 -108 0 -36
71 -44 286 -31 130 7 192 -1 202 -29 8 -20 -18 -69 -60 -111 -48 -49 -160
-147 -182 -159 -9 -5 -18 -12 -21 -16 -23 -30 -523 -385 -895 -635 -252 -169
-691 -421 -780 -447 -11 -4 -51 -20 -90 -36 -75 -31 -227 -78 -285 -87 -19 -3
-42 -8 -50 -10 -67 -18 -296 -27 -364 -14 -22 4 -57 9 -76 12 -184 28 -413
138 -516 249 -60 64 -129 293 -184 614 -40 232 -44 316 -20 429 10 49 31 153
45 230 41 220 102 436 173 611 11 27 31 78 45 114 47 119 126 307 157 374 16
37 30 68 30 71 0 2 16 38 35 79 19 42 35 78 35 81 0 2 14 35 31 72 257 558
559 1011 1058 1583 191 220 640 665 777 772 16 13 38 32 49 43 11 12 40 36 65
55 25 19 47 37 50 40 13 15 196 154 285 217 256 181 480 302 690 372 196 66
312 85 495 85 229 -1 402 -49 572 -160 236 -154 399 -421 468 -769 25 -121 4
-289 -50 -412 -10 -24 -17 -43 -15 -43 9 0 -87 -175 -127 -235 -279 -410 -749
-653 -1186 -612 -147 13 -234 61 -379 209 -180 182 -234 307 -186 430 47 122
176 260 290 310 178 78 357 54 474 -64 53 -54 83 -121 99 -222 8 -47 18 -80
27 -83 37 -14 220 158 268 253 40 79 43 184 6 256 -78 153 -251 267 -415 273
-146 5 -292 -50 -490 -185 -295 -202 -411 -390 -409 -670 1 -232 239 -504 514
-589 74 -23 191 -38 271 -35 119 5 274 22 358 39 175 37 272 62 405 107 93 31
252 95 270 107 29 21 260 111 365 143 87 26 82 24 191 47 147 31 265 80 446
187 225 132 441 321 463 405 15 56 13 168 -5 259 -2 8 -11 51 -20 95 -9 44
-18 87 -20 95 -26 124 -105 398 -156 540 -53 144 -185 408 -211 418 -4 2 -8 8
-8 14 0 16 -99 135 -161 195 -127 122 -288 212 -459 257 -99 26 -117 29 -240
46 -41 6 -88 13 -105 16 -33 6 -531 15 -537 9z m-1630 -486 c35 -12 46 -32 32
-59 -15 -28 -60 -58 -210 -138 -211 -112 -416 -242 -759 -482 -37 -25 -224
-165 -317 -237 -65 -50 -208 -165 -214 -173 -13 -17 -273 -221 -328 -259 -134
-90 -229 -119 -247 -74 -11 29 36 83 307 354 252 252 454 426 683 587 55 39
105 75 110 79 9 8 131 86 193 124 221 135 464 248 607 282 38 9 112 7 143 -4z
m346 -5922 c33 -45 28 -224 -14 -422 -66 -320 -250 -710 -404 -858 -57 -54
-86 -69 -191 -96 -64 -16 -81 -17 -151 -6 -43 7 -106 16 -139 19 -33 4 -71 9
-85 11 -14 2 -45 7 -70 11 -25 3 -54 7 -65 9 -11 1 -42 6 -70 10 -27 4 -77 13
-110 20 -33 8 -72 16 -86 19 -62 10 -303 78 -399 111 -114 40 -219 87 -262
117 -64 45 -20 97 126 148 166 59 505 226 946 468 85 46 180 99 210 117 211
126 429 250 507 290 157 79 216 86 257 32z m1463 -593 c24 -5 49 -44 57 -90
29 -155 29 -1200 1 -1529 -1 -22 -6 -76 -10 -120 -17 -204 -50 -327 -122 -462
-34 -63 -89 -151 -102 -163 -3 -3 -25 -30 -49 -61 -47 -62 -204 -218 -267
-264 -22 -17 -42 -33 -45 -36 -14 -16 -168 -114 -262 -166 -91 -51 -282 -135
-336 -149 -9 -2 -62 -15 -117 -29 -419 -105 -792 8 -921 278 -19 40 -37 84
-39 98 -14 69 -17 89 -17 144 0 76 8 130 33 225 65 245 222 412 457 489 126
41 252 67 342 70 91 3 105 -13 97 -108 -7 -86 -41 -156 -106 -221 -61 -61 -97
-79 -176 -89 -36 -4 -68 -10 -71 -14 -10 -10 36 -66 68 -83 41 -21 104 -13
198 26 239 98 330 247 266 432 -28 78 -66 136 -158 237 -90 98 -121 158 -120
231 1 30 3 64 6 75 2 11 7 34 11 50 17 72 88 193 161 275 75 84 105 130 117
181 13 54 133 150 342 274 199 119 386 253 465 335 49 51 143 122 192 144 52
24 70 27 105 20z"/>
</g>
</svg>
