<?xml version="1.0" encoding="UTF-8" standalone="no"?>
<!-- Created with Inkscape (http://www.inkscape.org/) -->

<svg
   width="208.90852mm"
   height="71.447273mm"
   viewBox="0 0 208.90852 71.447273"
   version="1.1"
   id="svg1"
   xml:space="preserve"
   xmlns:inkscape="http://www.inkscape.org/namespaces/inkscape"
   xmlns:sodipodi="http://sodipodi.sourceforge.net/DTD/sodipodi-0.dtd"
   xmlns="http://www.w3.org/2000/svg"
   xmlns:svg="http://www.w3.org/2000/svg"><sodipodi:namedview
     id="namedview1"
     pagecolor="#ffffff"
     bordercolor="#666666"
     borderopacity="1.0"
     inkscape:showpageshadow="2"
     inkscape:pageopacity="0.0"
     inkscape:pagecheckerboard="0"
     inkscape:deskcolor="#d1d1d1"
     inkscape:document-units="mm" /><defs
     id="defs1" /><g
     inkscape:label="Layer 1"
     inkscape:groupmode="layer"
     id="layer1"
     transform="translate(-0.77274169,-0.79491208)"><path
       d="m 150.14897,71.623292 c -0.003,-1.88325 -0.58327,-8.2104 -0.8529,-9.30423 -0.2906,-1.1789 -0.36647,-1.26519 -0.98718,-1.12269 -0.36981,0.0849 -1.0891,0.22233 -1.59843,0.30539 -0.50932,0.0831 -2.43595,0.63707 -4.2814,1.23112 -2.81234,0.9053 -3.37969,1.177 -3.50566,1.67888 -0.0827,0.32933 -0.42771,0.93539 -0.76679,1.34678 -0.33907,0.4114 -0.68684,0.94145 -0.77281,1.1779 -0.086,0.23645 -1.20756,1.04004 -2.49243,1.78576 -1.99745,1.1593 -2.53615,1.35588 -3.71597,1.35603 -1.15603,1.6e-4 -1.5265,-0.12857 -2.28389,-0.79357 -1.11531,-0.97926 -1.38023,-0.98867 -1.86209,-0.0661 -0.4402,0.84278 -1.60474,1.97496 -2.51307,2.44324 -0.75832,0.39096 -2.43696,0.17345 -3.36765,-0.43636 -0.96787,-0.63418 -1.87142,-2.41119 -2.04765,-4.02714 -0.17437,-1.59888 -0.25091,-1.74556 -0.8008,-1.53455 -0.24381,0.0936 -0.45734,0.71803 -0.57661,1.68633 -0.10417,0.84576 -0.2635,1.74172 -0.35404,1.99101 -0.17572,0.48377 -0.17553,-12.26104 1.9e-4,-13.15326 0.0842,-0.42743 -0.0207,-0.51519 -0.54568,-0.45647 -0.35744,0.04 -0.71996,0.18608 -0.8056,0.32465 -0.0856,0.13857 -1.04383,1.17742 -2.12931,2.30855 -1.60456,1.67205 -2.04417,2.31634 -2.35107,3.44567 -0.39482,1.45283 -1.05249,1.85612 -1.55694,0.95471 -0.18121,-0.3238 -0.43707,-0.38706 -1.00534,-0.24855 -1.67238,0.40763 -2.23739,0.47068 -2.84695,0.31769 -0.81695,-0.20504 -2.35567,-1.74302 -2.90767,-2.90628 -0.47167,-0.99397 -1.15557,-1.40262 -1.60032,-0.95623 -0.31532,0.31648 -0.33361,5.77385 -0.0289,8.61936 l 0.18139,1.69377 0.97113,0.0168 c 0.89778,0.0155 0.92264,0.0361 0.32914,0.27332 -0.3531,0.1411 -1.84138,0.22285 -3.3073,0.18167 -2.17342,-0.0611 -2.64968,-0.14619 -2.58062,-0.46123 0.0466,-0.21248 0.1892,-1.67234 0.31695,-3.24412 0.12775,-1.57178 0.31615,-2.99349 0.41865,-3.15936 0.10251,-0.16586 0.27987,-1.50397 0.39413,-2.97358 0.11426,-1.46961 0.34298,-3.26733 0.50827,-3.99493 0.16528,-0.72761 0.34543,-1.96592 0.40031,-2.75181 0.0549,-0.7859 0.21621,-1.54532 0.3585,-1.6876 0.16855,-0.16856 0.15582,-0.42346 -0.0365,-0.73147 -0.22418,-0.35897 -0.18777,-0.8593 0.15126,-2.07872 0.24557,-0.88327 0.44649,-1.91538 0.44649,-2.29357 v -0.687614 l -3.15388,0.0883 c -2.82694,0.0791 -3.24175,0.15335 -4.00152,0.715764 -0.46619,0.3451 -0.79742,0.47685 -0.73606,0.29277 0.0614,-0.18407 0.64165,-0.602854 1.28953,-0.930614 1.04161,-0.52694 1.71757,-0.61437 5.83925,-0.75525 l 4.66129,-0.15933 -0.0643,0.99165 c -0.0353,0.545414 -0.14471,1.408374 -0.24304,1.917694 -0.15794,0.81809 -0.004,1.20358 1.32068,3.30674 2.40768,3.82266 5.10956,7.2766 5.6922,7.2766 1.10095,0 2.09505,-1.42039 4.70316,-6.71996 1.4396,-2.92523 2.69848,-5.581524 2.79751,-5.902894 0.16524,-0.53623 0.0693,-0.59898 -1.16603,-0.76286 -2.65202,-0.3518 -1.04162,-0.4078 2.55075,-0.0887 3.61634,0.32124 5.33492,0.7744 2.93684,0.7744 h -1.22733 l -0.17145,1.143294 c -0.0943,0.62881 -0.042,1.62391 0.11615,2.21134 0.30388,1.12854 0.0504,4.39723 -0.51959,6.69954 -0.42839,1.73039 -0.88654,9.90372 -0.66902,11.93495 0.24334,2.27224 0.86895,3.28701 2.28872,3.71238 0.97621,0.29248 1.21167,0.2714 2.05498,-0.18402 2.44396,-1.31984 2.87985,-4.18117 0.89225,-5.85715 l -0.68818,-0.58029 1.13647,0.28847 c 0.91847,0.23313 1.18136,0.21756 1.37051,-0.0812 0.16824,-0.2657 0.23519,-0.16135 0.2381,0.37111 0.0111,2.02485 1.53543,3.17927 4.23738,3.20905 2.06826,0.0228 3.34497,-0.60517 4.02219,-1.97837 0.66585,-1.35012 0.61543,-2.10372 -0.14073,-2.10372 -0.57786,0 -0.61324,-0.0922 -0.56506,-1.47223 0.0565,-1.61776 0.15963,-1.78885 1.47396,-2.44499 0.7155,-0.3572 0.91556,-0.63014 0.9836,-1.34194 0.10986,-1.1492 -0.0717,-1.30657 -2.03644,-1.76491 -3.28537,-0.76642 -5.5896,-2.38894 -5.5896,-3.9359 0,-0.94969 0.63936,-2.00461 1.21494,-2.00461 0.31571,0 0.33367,0.10746 0.0931,0.55703 -0.41357,0.77276 -0.0991,2.15312 0.68275,2.99673 0.70327,0.75884 3.53575,2.1772 4.62382,2.31537 l 0.66146,0.084 0.0175,-3.30729 c 0.0104,-1.95877 0.15858,-3.73882 0.36347,-4.36563 0.77296,-2.36465 3.09697,-4.419134 6.26407,-5.537598 1.1474,-0.40521 2.21483,-0.84089 2.37206,-0.96819 0.15724,-0.12729 1.26688,-0.1558 2.46588,-0.0633 2.04106,0.1574 2.17164,0.20346 2.04884,0.72278 -0.51164,2.163664 -0.46209,3.508388 0.20432,5.544718 0.4663,1.42486 0.63268,2.38284 0.52845,3.04271 -0.0926,0.58651 0.0188,1.46431 0.28512,2.24496 0.28187,0.82636 0.3773,1.6367 0.26856,2.28037 -0.14908,0.88235 -0.082,1.06412 0.57629,1.56261 l 0.745,0.5641 -0.56335,0.47934 c -0.47261,0.40214 -0.55945,0.75363 -0.53917,2.1826 0.0133,0.9368 -0.0241,3.09914 -0.083,4.80519 -0.0589,1.70605 -0.0188,3.19026 0.0891,3.29823 0.10797,0.10798 0.93461,0.003 1.83697,-0.23268 0.90236,-0.23595 1.67664,-0.39433 1.72061,-0.35196 0.14456,0.13929 -2.17786,1.14592 -3.06285,1.32757 -0.47643,0.0978 -1.22057,0.47595 -1.65365,0.84036 l -0.78741,0.66256 z m -49.00719,-3.66736 c -0.14362,-1.49463 -0.26975,-1.71469 -0.85428,-1.49038 -0.29314,0.11249 -0.40829,0.53213 -0.40829,1.48789 0,1.26078 0.0368,1.33122 0.69512,1.33122 0.67512,0 0.69145,-0.0382 0.56745,-1.32873 z m 44.90723,-8.34671 c 1.73237,-0.1274 2.51354,-0.32889 2.51354,-0.64835 0,-0.15813 -1.5507,-0.25954 -3.96875,-0.25954 h -3.96875 v 0.69965 0.69965 l 2.05052,-0.19706 c 1.12778,-0.10839 2.64583,-0.24085 3.37344,-0.29435 z m -37.96771,-0.26073 c 0,-0.0806 -0.34241,-0.76524 -0.76092,-1.52135 -0.4185,-0.75612 -1.10311,-2.02961 -1.52135,-2.82997 -0.79855,-1.52815 -1.07405,-1.84138 -1.62538,-1.84804 -0.42816,-0.005 -0.20955,0.91212 0.63424,2.66121 0.34517,0.71549 0.62758,1.39342 0.62758,1.50649 0,0.47731 1.6679,2.17825 2.13592,2.17825 0.28045,0 0.50991,-0.066 0.50991,-0.14659 z m 39.66512,-1.69757 c 0.52197,-0.14311 0.66916,-0.33846 0.62181,-0.82531 -0.0341,-0.3508 -0.14079,-1.56604 -0.23708,-2.70052 -0.16063,-1.8928 -0.25033,-2.13798 -1.08891,-2.97657 -1.54324,-1.54323 -2.80502,-1.1584 -3.51005,1.07052 -0.18412,0.58208 -0.55636,1.37437 -0.8272,1.76064 -0.27084,0.38626 -0.49244,0.98753 -0.49244,1.33614 0,0.34862 -0.10652,0.74695 -0.23671,0.8852 -0.13019,0.13824 -0.32094,0.65059 -0.4239,1.13855 l -0.18718,0.8872 2.84891,-0.19418 c 1.56691,-0.1068 3.15664,-0.27855 3.53275,-0.38167 z m -30.41863,-5.76261 c 1.27847,-1.73173 1.62992,-2.7642 1.06067,-3.11602 -0.45066,-0.27852 -0.92627,0.30028 -2.07583,2.52622 -1.23127,2.38417 -1.2288,2.37574 -0.69546,2.37574 0.21567,0 0.98545,-0.80367 1.71062,-1.78594 z m 23.40626,-1.32391 c 0.27824,-0.69068 0.73582,-1.58739 1.01685,-1.99271 0.4091,-0.59002 0.44685,-0.81418 0.18932,-1.12447 -0.60602,-0.73023 -1.21134,-0.44851 -1.58341,0.73692 -0.19412,0.61847 -0.4513,1.23759 -0.57152,1.37584 -0.12022,0.13824 -0.21858,0.70379 -0.21858,1.25677 0,1.40086 0.54919,1.28214 1.16734,-0.25235 z m 7.25166,-5.069424 c 0.0699,-0.71252 10e-4,-0.84646 -0.39384,-0.77034 -0.51453,0.0991 -0.75758,0.79283 -0.50677,1.44644 0.25501,0.664554 0.80995,0.247954 0.90061,-0.6761 z m -44.54859,0.26437 c 0.17923,-0.28999 -0.38091,-0.5232 -0.84593,-0.35219 -0.1819,0.0669 -0.33072,0.22794 -0.33072,0.3579 0,0.3107 0.98405,0.30593 1.17665,-0.006 z m 39.94441,0.0814 c 0.46738,-0.17935 0.57664,-0.89774 0.13654,-0.89774 -0.45239,0 -1.30552,0.52479 -1.30552,0.80306 0,0.28923 0.54663,0.3335 1.16898,0.0947 z M 34.101464,71.070612 c 0.460352,-1.65873 0.472066,-1.78594 0.164464,-1.78594 -0.175213,0 -0.690142,0.26459 -1.144287,0.58797 -0.667198,0.47508 -1.187078,0.58796 -2.708021,0.58796 -5.035926,0 -7.527869,-4.21968 -4.022706,-6.81176 1.243852,-0.91983 1.767418,-1.12626 0.956156,-0.37699 -0.989979,0.91433 -1.286749,1.58066 -1.285617,2.88658 0.0011,1.293 0.686222,2.60629 1.709332,3.27666 1.044662,0.68449 3.305655,0.40713 4.715099,-0.57841 2.710291,-1.89514 4.365919,-5.83409 4.935773,-11.74284 0.35064,-3.63575 0.494188,-11.510034 0.214982,-11.792814 -0.10878,-0.11018 -0.942217,-0.19162 -1.852083,-0.18098 l -1.654301,0.0193 1.455208,-0.20948 c 0.800365,-0.11521 2.315991,-0.28357 3.368059,-0.374124 1.87907,-0.16174 1.915787,-0.15294 2.079203,0.498164 0.168771,0.67244 0.841401,0.88289 1.313363,0.41093 0.299819,-0.29982 1.883132,-0.39074 2.639145,-0.15155 0.366209,0.11587 0.785659,-0.0448 1.322916,-0.50688 0.69687,-0.599304 1.71273,-0.918024 1.71273,-0.537364 0,0.311464 -1.594783,3.273028 -1.846162,3.428388 -0.343538,0.21232 -0.350533,2.09605 -0.01174,3.15988 0.142324,0.44689 0.485973,1.52691 0.763666,2.40003 0.277693,0.87313 0.651997,2.18282 0.831786,2.91042 0.17979,0.7276 0.669578,2.34908 1.088418,3.60328 0.41884,1.2542 0.761527,2.46185 0.761527,2.68367 0,0.5334 0.82466,0.83553 1.099275,0.40274 0.118546,-0.18683 0.217362,-1.14906 0.21959,-2.13828 0.0022,-0.98922 0.191885,-3.43 0.421458,-5.42396 0.857677,-7.44932 1.535787,-9.224184 4.001225,-10.472634 1.237718,-0.626764 1.400095,-0.523674 0.325415,0.2066 -0.994146,0.67554 -2.149977,2.240124 -2.462523,3.333374 -1.158736,4.05314 -1.983273,9.90538 -2.031641,14.41979 -0.03142,2.93257 -0.05431,2.82521 0.582132,2.73038 0.421943,-0.0629 0.650617,-0.38982 0.891874,-1.27517 0.178444,-0.65484 0.704816,-2.20265 1.169717,-3.43958 0.4649,-1.23693 1.021118,-3.26099 1.23604,-4.49792 0.214922,-1.23693 0.50379,-2.60614 0.641929,-3.04271 0.287787,-0.9095 0.816495,-5.15958 0.791711,-6.36426 -0.01126,-0.54756 0.198141,-0.994754 0.649629,-1.387314 0.824803,-0.71716 0.849049,-1.104994 0.07094,-1.134714 -0.528401,-0.0202 -0.513919,-0.0472 0.128839,-0.24078 0.398283,-0.11992 1.092051,-0.58594 1.541706,-1.03559 1.000615,-1.00062 1.19756,-1.01906 1.184156,-0.1109 -0.0093,0.62682 0.136068,0.74445 1.286216,1.0411 1.378575,0.35556 1.735503,0.683834 1.74201,1.602164 0.006,0.853724 -2.324684,2.611624 -2.813951,2.122364 -0.07276,-0.0728 0.09574,-0.20467 0.374451,-0.29313 0.776349,-0.2464 1.240358,-1.286074 0.876997,-1.965014 -0.342292,-0.63958 -1.242986,-1.191054 -1.592499,-0.975034 -0.130736,0.0808 -0.371128,0.769054 -0.534205,1.529454 -0.252849,1.178994 -0.235617,1.427074 0.117041,1.684944 0.365386,0.26718 0.353241,0.31816 -0.104291,0.43781 -0.358063,0.0936 -0.569545,0.4506 -0.685429,1.15695 -0.353471,2.15452 -1.739527,9.0079 -2.025955,10.01737 -0.858716,3.02642 -2.462471,7.54043 -3.025666,8.5162 -0.434263,0.75238 -0.936127,1.21515 -1.564066,1.44221 -0.508544,0.18389 -0.924625,0.4295 -0.924625,0.54578 0,0.11629 -0.232065,0.21143 -0.515701,0.21143 -0.851479,0 -1.785292,-1.48166 -3.585176,-5.68854 -0.18678,-0.43656 -0.489701,-1.38906 -0.673157,-2.11666 -0.183456,-0.72761 -0.553567,-1.79177 -0.822469,-2.3648 -0.268902,-0.57304 -0.488913,-1.14609 -0.488913,-1.27345 0,-0.12735 -0.36963,-0.99796 -0.8214,-1.93467 -0.815294,-1.69046 -1.429422,-2.12909 -1.736284,-1.2401 -0.0879,0.25466 -0.667152,1.53458 -1.287218,2.84427 -0.620066,1.30968 -1.448084,3.15515 -1.84004,4.10104 -0.391957,0.94588 -1.045255,2.43416 -1.451775,3.30729 -0.40652,0.87312 -1.117702,2.42094 -1.580404,3.43958 -0.84674,1.86411 -1.384138,2.51354 -2.079932,2.51354 -0.263698,0 -0.32746,-0.17909 -0.211946,-0.59531 z m 4.658999,-13.58529 c 0,-0.33266 0.119063,-0.67842 0.264583,-0.76835 0.145521,-0.0899 0.264584,-0.41026 0.264584,-0.71182 0,-0.30156 0.36832,-1.62101 0.81849,-2.93211 0.883016,-2.57175 0.876497,-2.65221 -0.363952,-4.49201 -0.949024,-1.40757 -1.127127,-0.983 -1.498356,3.57187 -0.192728,2.36472 -0.407087,4.8948 -0.476354,5.6224 l -0.12594,1.32292 0.558473,-0.50403 c 0.307159,-0.27722 0.558472,-0.77621 0.558472,-1.10887 z m 129.604377,13.41103 c -0.4839,-0.38063 -1.03021,-0.49647 -2.2185,-0.47039 -2.3877,0.0524 -2.81155,-0.44831 -0.51817,-0.61212 1.67195,-0.11942 1.86031,-0.19019 1.93663,-0.7276 0.0565,-0.39775 -0.0516,-0.59532 -0.32569,-0.59532 -0.40229,0 -0.64714,-0.66935 -0.62909,-1.71979 0.0188,-1.0923 -0.35638,-4.53467 -0.59832,-5.4901 -0.13818,-0.5457 -0.3703,-1.46844 -0.51582,-2.05052 -0.78051,-3.12203 -0.72376,-2.93029 -2.52554,-8.53281 -0.96463,-2.99943 -1.35893,-3.90261 -1.70377,-3.90261 -0.86526,0 -3.72234,1.64136 -4.39719,2.52614 -0.95944,1.25788 -1.10828,2.69562 -0.37532,3.62542 0.70038,0.88849 1.759,0.95753 2.74843,0.17924 0.73696,-0.57969 0.87519,-1.2704 0.42325,-2.11486 -0.37883,-0.70785 -1.57819,-0.69463 -1.57819,0.0174 0,0.29104 -0.11907,0.52916 -0.26459,0.52916 -0.47877,0 -0.27583,-1.03369 0.25916,-1.32001 1.05661,-0.56548 2.65126,0.41658 2.65126,1.63276 0,0.25277 -0.32615,0.76201 -0.72478,1.13164 -1.25165,1.1606 -3.2296,1.20401 -4.56689,0.10025 -0.99587,-0.82198 -0.93366,-2.54655 0.1323,-3.66754 0.95315,-1.00236 2.50192,-1.9457 4.10971,-2.50318 0.65007,-0.2254 1.32651,-0.46199 1.50319,-0.52576 0.24365,-0.0879 0.22807,-0.294554 -0.0645,-0.855484 -0.59599,-1.142614 -0.48746,-1.319784 0.92303,-1.506894 1.45174,-0.19258 1.81545,-0.50438 1.30534,-1.11903 -0.30106,-0.36276 -0.12029,-0.39633 1.63087,-0.30289 2.97504,0.15876 6.17242,0.94523 9.11321,2.241604 5.05048,2.226384 7.60249,4.203164 8.84856,6.854074 0.43731,0.93032 0.54415,1.68463 0.54415,3.84178 0,4.03232 -0.73238,6.13001 -3.01149,8.62556 -0.71044,0.77791 -1.23657,1.46951 -1.16918,1.5369 0.21661,0.21661 5.04451,-0.91968 5.68181,-1.33726 0.57356,-0.3758 0.61552,-0.36723 0.61552,0.12579 0,0.35166 -0.35491,0.70862 -1.05833,1.06443 -0.58208,0.29444 -1.52883,0.77347 -2.10389,1.06451 -0.57505,0.29104 -1.51371,0.52917 -2.0859,0.52917 -0.79834,0 -1.4431,0.27576 -2.77164,1.18544 -2.05667,1.40823 -4.10663,2.35186 -5.98384,2.75445 -1.90501,0.40855 -2.49662,0.36987 -3.23577,-0.21155 z m 1.08496,-1.84854 c 0.16076,-0.30039 0.80091,-0.62921 1.5965,-0.82007 2.90906,-0.69787 6.42285,-3.83858 8.47225,-7.57269 l 1.1349,-2.06784 -0.28308,-1.82886 c -0.36039,-2.32827 -1.6061,-4.86471 -3.01379,-6.13648 -0.60432,-0.54596 -2.20857,-1.51127 -3.56499,-2.14514 -2.43109,-1.13605 -3.53321,-1.41139 -3.53321,-0.88271 0,0.14838 -0.29766,2.55074 -0.66146,5.33858 -0.3638,2.78785 -0.66146,5.91403 -0.66146,6.94707 0,2.33606 -0.4641,6.14322 -0.83287,6.83228 -0.15734,0.29398 -0.20149,1.01659 -0.10246,1.67694 0.13548,0.90344 0.28553,1.16037 0.67765,1.16037 0.27701,0 0.62441,-0.22566 0.77202,-0.50145 z m -3.16017,-16.97618 c 0,-2.1644 0.4803,-3.59131 1.51446,-4.49932 0.5073,-0.44541 0.85973,-0.87247 0.78319,-0.94902 -0.30839,-0.30839 -3.29387,-0.40923 -3.81758,-0.12894 -0.46383,0.24823 -0.51566,0.42827 -0.33317,1.15725 0.5719,2.28451 0.79477,3.44899 0.79477,4.15273 0,1.03546 0.24486,1.60535 0.68976,1.60535 0.26645,0 0.36857,-0.37074 0.36857,-1.33805 z m -0.85825,-6.401024 c -0.12492,-0.38042 -1.523,-0.61919 -1.523,-0.26011 0,0.39931 0.32163,0.59084 0.99219,0.59084 0.39306,0 0.59757,-0.12742 0.53081,-0.33073 z M 71.939769,70.361122 c -2.686527,-0.42841 -4.722702,-1.34594 -6.924305,-3.12017 -1.249934,-1.0073 -2.942456,-3.39419 -3.442092,-4.85423 -0.404764,-1.1828 -0.423181,-5.52723 -0.02763,-6.5172 2.038591,-5.10207 5.04705,-8.18647 9.89076,-10.140444 0.873125,-0.35222 1.94775,-0.90507 2.388056,-1.228554 0.550385,-0.40435 0.921673,-0.51329 1.188135,-0.3486 0.335764,0.20751 0.326011,0.34376 -0.07295,1.019154 -0.253292,0.42879 -0.460531,0.92298 -0.460531,1.098214 0,0.47157 1.239673,0.0966 2.645833,-0.800224 3.941833,-2.514144 8.07463,-1.550724 9.921891,2.312944 1.126074,2.35526 1.152303,2.44862 1.320867,4.70162 0.0871,1.16417 0.22337,2.8772 0.302824,3.80674 0.441425,5.16427 -4.013792,11.38969 -9.696215,13.54884 -1.594354,0.60581 -4.948162,0.85463 -7.034643,0.52191 z m 6.740182,-0.87189 c 1.532556,-0.5734 4.355013,-3.11257 5.099747,-4.58788 0.215461,-0.42683 0.559498,-1.04097 0.764526,-1.36476 0.585564,-0.92475 -0.0166,-1.29935 -0.84884,-0.52805 -0.366028,0.33922 -0.773702,0.80065 -0.905944,1.0254 -0.278809,0.47384 -4.361349,3.63179 -5.532104,4.27923 -0.436563,0.24142 -1.36692,0.67687 -2.06746,0.96767 -2.829337,1.17446 0.393668,1.36691 3.490075,0.20839 z m -1.580258,-3.27067 c 1.780923,-0.89096 5.052434,-3.56169 5.052434,-4.12461 0,-0.14001 0.332059,-0.75226 0.737909,-1.36056 0.700556,-1.05002 1.477913,-2.58648 2.141852,-4.23342 0.344694,-0.85503 0.34201,-4.08849 -0.0036,-4.30207 -0.126696,-0.0783 -0.230357,-0.3528 -0.230357,-0.61 0,-0.72246 -2.487251,-3.31801 -3.706373,-3.86776 -1.077515,-0.48589 -1.114826,-0.48466 -3.123854,0.10291 -1.118323,0.32707 -2.317896,0.77904 -2.665719,1.00438 l -0.632404,0.40972 0.830842,0.65023 c 1.213343,0.94958 1.152013,2.10406 -0.186524,3.51115 -0.925316,0.97271 -1.137659,1.06948 -2.346865,1.06948 h -1.329498 l -0.28628,1.12448 c -0.771534,3.0305 -1.081901,8.50266 -0.554471,9.77599 0.832085,2.00883 3.316809,2.34395 6.302879,0.85008 z m -10.028814,-2.6005 c 0,-2.1683 0.112869,-3.01951 0.529166,-3.99069 0.291042,-0.67897 0.529167,-1.28415 0.529167,-1.34485 0,-0.31311 -1.288351,-0.0529 -1.418597,0.28652 -0.08376,0.21828 -0.275094,0.39688 -0.425182,0.39688 -0.350245,0 -0.357046,-0.9751 -0.0083,-1.19063 0.145521,-0.0899 0.268914,-0.42439 0.274206,-0.74322 0.0053,-0.31883 0.584241,-1.33456 1.286551,-2.25717 1.416738,-1.86115 2.407992,-3.58747 2.407992,-4.19366 0,-0.21845 0.220598,-0.71321 0.490217,-1.09948 0.469635,-0.67281 1.891033,-3.404664 1.891033,-3.634464 0,-0.33448 -1.09174,-0.008 -2.248959,0.672194 -3.336825,1.96181 -5.463185,5.05566 -6.340242,9.22505 -0.819215,3.89441 -0.261117,7.02974 1.762602,9.9021 1.000484,1.42004 1.27035,0.9891 1.27035,-2.02858 z m 7.482976,-10.56428 c 1.144591,-0.47845 1.606887,-1.08553 1.413475,-1.85614 -0.208932,-0.83245 -1.490678,-1.38641 -2.257864,-0.97582 -0.665233,0.35602 -0.680755,0.49166 -0.126363,1.10426 0.400014,0.44201 0.381589,0.46823 -0.293493,0.4177 -0.808341,-0.0605 -1.367671,0.56097 -1.109769,1.23305 0.202325,0.52725 1.217997,0.56017 2.374014,0.0769 z m 48.145675,15.29908 c -0.88311,-0.6247 -0.78736,-1.76997 0.21874,-2.61655 0.44772,-0.37674 1.01327,-0.68227 1.25677,-0.67895 0.24727,0.003 0.0631,0.19316 -0.41718,0.42992 -0.70435,0.34722 -0.85989,0.57801 -0.85989,1.27588 0,1.34895 1.25878,2.18763 2.09682,1.39703 0.28292,-0.26691 0.32748,-0.25415 0.2309,0.0661 -0.16859,0.5591 -1.7992,0.64077 -2.52616,0.12653 z m 8.29097,-2.95223 c 0.30648,-1.53239 -1.38684,-2.47411 -2.742,-1.52492 -0.82702,0.57927 -0.73291,0.0874 0.13957,-0.72953 1.05949,-0.99197 1.71276,-1.11076 2.53811,-0.46153 0.81232,0.63897 0.95791,2.13959 0.29293,3.01915 -0.36947,0.48869 -0.38331,0.47033 -0.22861,-0.30317 z M 28.706297,65.066952 c 0,-0.13694 0.119062,-0.32256 0.264583,-0.41249 0.145521,-0.0899 0.264583,-0.0462 0.264583,0.0973 0,0.14344 0.20836,0.31525 0.463021,0.3818 0.284867,0.0744 0.183065,0.13281 -0.264583,0.15169 -0.400182,0.0169 -0.727604,-0.0813 -0.727604,-0.21827 z m 2.057795,-0.16291 c 1.273022,-0.89166 0.283659,-2.23064 -1.653646,-2.23801 -0.785466,-0.003 -0.961272,-0.0715 -0.668733,-0.26053 1.07809,-0.69672 3.96875,-0.0317 3.96875,0.91306 0,0.47016 -1.441153,1.99735 -1.884816,1.99735 -0.192276,0 -0.08498,-0.18534 0.238445,-0.41187 z M 93.10761,52.464612 c -1.07428,-0.53005 -2.02677,-2.22358 -1.88648,-3.35416 l 0.10673,-0.86016 0.0423,0.95611 c 0.10114,2.28384 3.78195,3.5886 4.90973,1.74037 0.23413,-0.3837 0.18714,-0.55642 -0.23718,-0.87169 -0.49073,-0.36462 -1.03703,-0.35039 -2.09209,0.0545 -0.63578,0.24398 -0.51934,-0.50021 0.14299,-0.91385 0.48045,-0.30004 0.71582,-0.28424 1.58158,0.10616 0.55942,0.25227 1.08236,0.66418 1.16208,0.91537 0.23484,0.73991 -0.31555,1.79345 -1.16693,2.23372 -0.98491,0.50932 -1.52036,0.50799 -2.56277,-0.006 z M 16.348408,44.242394 c -1.322391,-0.46837 -2.72336,-1.95912 -2.72336,-2.89788 0,-0.9615 0.425337,-1.66259 1.841836,-3.03592 0.762545,-0.73931 1.313983,-1.53792 1.416757,-2.0518 0.09255,-0.46274 0.200898,-0.93007 0.240776,-1.03851 0.03988,-0.10844 -1.058588,-0.27225 -2.441035,-0.36402 -1.647948,-0.10939 -3.236491,-0.41051 -4.612864,-0.87441 -1.1546272,-0.38915 -2.8810342,-0.77733 -3.8364582,-0.86262 -2.485331,-0.22187 -3.860638,-1.00877 -4.786437,-2.73864 C 0.93829881,29.426914 0.54645181,22.039754 0.92197681,20.469034 2.0741148,15.649954 4.2324038,11.987714 8.0612838,8.3548542 11.58486,5.0116752 15.097674,3.1577302 19.181298,2.4860862 c 1.236927,-0.203441 2.769943,-0.556518 3.406703,-0.784617 1.59093,-0.5699 4.854243,-0.521422 6.382879,0.09482 1.679287,0.676975 2.754002,2.262465 3.493596,5.153982 0.437812,1.711673 0.515996,2.415143 0.305637,2.750023 -0.519031,0.8262798 -2.699561,2.1966398 -3.718465,2.3368898 -0.553745,0.0762 -1.602122,0.42551 -2.329726,0.7762 -1.706071,0.82229 -4.062766,1.28907 -5.318708,1.05345 -1.264787,-0.23727 -2.486499,-1.50065 -2.486499,-2.5713 0,-1.3012898 0.595741,-2.1650298 2.144508,-3.1092298 1.211419,-0.73853 2.22731,-0.69971 3.043325,0.1163 0.763429,0.76343 0.680861,1.53756 -0.249887,2.3428698 -0.564418,0.48835 -0.573493,0.48653 -0.657184,-0.13229 -0.190293,-1.4070398 -2.022279,-1.7547198 -3.102771,-0.5888498 -0.876032,0.9452598 -0.816932,1.5659698 0.250759,2.6336598 0.743091,0.74309 1.096776,0.89958 2.033131,0.89958 2.244001,0 4.52618,-1.71687 5.267332,-3.9625798 0.277904,-0.84206 0.27284,-1.24148 -0.0287,-2.26385 -0.997636,-3.382471 -4.481017,-4.247487 -8.156011,-2.025352 -4.026064,2.434412 -8.790582,7.7698618 -10.6398722,11.9148518 -1.536933,3.44487 -1.975856,4.62512 -2.229192,5.99422 -0.107707,0.58209 -0.236605,1.23693 -0.28644,1.45521 -0.131215,0.57473 0.470311,3.5549 0.81154,4.02065 0.505203,0.68957 1.943586,1.27132 3.1212182,1.26238 1.831687,-0.0139 3.583787,-0.78733 6.826159,-3.01324 4.57002,-3.13736 5.101408,-3.73107 3.175,-3.54736 -1.096891,0.10461 -1.401902,-0.11836 -0.595312,-0.43518 1.025228,-0.40271 7.42783,-0.47164 10.52958,-0.11336 l 3.162606,0.36529 -1.984375,0.1351 c -1.091406,0.0743 -2.117411,0.22166 -2.28001,0.32746 -0.162599,0.1058 -0.371129,0.70111 -0.463399,1.32292 -0.09227,0.6218 -0.291317,1.90446 -0.442326,2.85034 -0.151008,0.94589 -0.383263,2.55323 -0.516122,3.57188 -0.608999,4.66928 -0.856574,6.00488 -1.504635,8.11712 -0.581432,1.89508 -2.844884,4.08204 -5.03235,4.86229 -1.306002,0.465854 -3.363021,0.442544 -4.76488,-0.054 z m 5.431324,-0.90498 c 1.847525,-0.92322 3.259618,-2.41303 3.709084,-3.91322 0.170205,-0.56809 0.307064,-2.69164 0.307064,-4.7645 0,-3.38689 -0.04367,-3.73919 -0.463021,-3.73505 -0.254661,0.002 -0.756122,0.31338 -1.114358,0.69082 -0.358236,0.37743 -1.28097,1.04159 -2.05052,1.47589 -0.769551,0.43431 -1.399183,0.93843 -1.399183,1.12026 0,0.18184 -0.231376,0.54001 -0.51417,0.79593 -0.282793,0.25593 -0.59113,0.81572 -0.685192,1.24398 -0.136331,0.62071 -0.03203,0.91765 0.51417,1.46385 1.02867,1.02867 0.931051,2.09185 -0.243499,2.65196 -0.717974,0.34238 -1.000129,0.37142 -1.243542,0.12801 -0.243412,-0.24341 -0.204404,-0.31485 0.171919,-0.31485 0.569102,0 1.186111,-0.7215 1.198149,-1.40105 0.0072,-0.405 -0.137817,-0.44871 -0.983772,-0.29658 -1.593879,0.28664 -2.378285,0.88448 -2.786195,2.12353 -0.997183,3.02899 2.026701,4.508154 5.583066,2.73102 z m -4.666179,-9.21258 c 0.802724,-0.30773 1.959555,-2.67583 2.179479,-4.46153 0.211597,-1.71808 -0.05613,-1.77834 -2.19379,-0.49384 -2.142033,1.28712 -5.359602,2.95251 -6.053881,3.13344 -0.327422,0.0853 -0.595312,0.27577 -0.595312,0.42322 0,0.35733 2.407048,1.14055 4.22745,1.37554 0.8036,0.10374 1.542637,0.20422 1.642304,0.2233 0.09967,0.0191 0.456855,-0.071 0.79375,-0.20013 z M 11.387541,8.1422542 c 1.769893,-1.512187 4.185252,-3.184014 5.762876,-3.988858 0.750388,-0.382819 0.952489,-0.598861 0.703927,-0.75248 -0.801736,-0.495501 -4.408241,1.572954 -6.84908,3.928188 -1.0329732,0.99674 -1.8781322,1.89043 -1.8781322,1.98599 0,0.47686 0.839221,0.0414 2.2604092,-1.17284 z M 195.92296,39.632994 c -0.94588,-0.11579 -3.20807,-0.2288 -5.02708,-0.25114 -3.72785,-0.0458 -7.9375,-0.48408 -7.9375,-0.82644 0,-0.12485 0.29766,-0.227 0.66146,-0.227 1.02979,0 0.8201,-0.74001 -0.26751,-0.94405 -0.51093,-0.0958 -1.00063,-0.29024 -1.08822,-0.43197 -0.25275,-0.40895 -0.48628,-5.95429 -0.49918,-11.85315 l -0.0119,-5.42396 -1.38172,-3.61505 c -0.75995,-1.98828 -1.38172,-3.68622 -1.38172,-3.7732 0,-0.087 -0.25198,-0.72239 -0.55995,-1.41203 -0.93924,-2.1032098 -1.24636,-2.8188398 -1.53078,-3.5669298 -0.21215,-0.557976 -0.55434,-0.790014 -1.53845,-1.043192 l -1.26561,-0.325602 1.05833,-0.194353 c 0.58208,-0.106895 1.8925,-0.201216 2.91204,-0.209602 1.01954,-0.0084 3.37695,-0.193431 5.2387,-0.411211 3.23941,-0.378935 3.45329,-0.442349 4.97325,-1.474534 2.13266,-1.448263 3.13354,-1.832486 4.79303,-1.839981 0.76866,-0.0035 1.87046,-0.115953 2.44845,-0.249958 0.62388,-0.144645 1.80647,-0.149392 2.91042,-0.01168 1.64736,0.205499 1.94368,0.332131 2.59709,1.109854 0.65474,0.779312 0.72901,1.056148 0.66146,2.465389 -0.0721,1.503228 -0.1138,1.591855 -0.78614,1.669525 -0.39052,0.04511 -1.06922,-0.103714 -1.50822,-0.330729 -0.439,-0.227015 -1.10174,-0.412754 -1.47277,-0.412754 -0.63492,0 -0.67575,0.0817 -0.69421,1.389058 -0.0108,0.76399 -0.11495,1.92485 -0.23147,2.5796898 l -0.21185,1.19063 -0.0331,-1.1747 c -0.0182,-0.6460898 -0.17902,-1.8810798 -0.35734,-2.7444298 l -0.32422,-1.569734 -1.77608,0.165069 c -0.97684,0.09079 -2.08885,0.283985 -2.47113,0.429327 -0.38227,0.145341 -1.10664,0.264257 -1.60969,0.264257 -0.80142,0 -1.01218,0.153799 -1.70257,1.242421 -0.5137,0.81003 -0.78792,1.5882 -0.78792,2.2359398 0,0.54643 -0.11095,1.56492 -0.24655,2.2633 -0.63663,3.27875 -1.1066,6.97544 -0.94967,7.46986 0.24756,0.78 1.16293,0.68709 2.23192,-0.22655 1.24294,-1.0623 3.77152,-1.85869 6.40901,-2.01854 1.21692,-0.0738 2.79702,-0.18676 3.51132,-0.25111 1.2108,-0.10908 1.35861,-0.0535 2.18282,0.82039 0.93548,0.9919 1.16869,2.25476 0.60937,3.29986 -0.23033,0.43037 -0.45071,0.48514 -1.36436,0.33904 -1.02165,-0.16337 -1.08033,-0.13863 -0.9404,0.39647 0.11389,0.43553 0.014,0.59854 -0.42159,0.6882 -1.9497,0.4013 -4.52852,0.70349 -8.11729,0.95118 -5.53134,0.38176 -5.31896,0.0998 -4.47398,5.94058 0.16842,1.16417 0.38207,2.71198 0.47479,3.43958 l 0.16857,1.32292 3.41277,0.0743 c 2.41539,0.0526 3.76857,-0.0371 4.63021,-0.30704 0.66959,-0.20977 1.94165,-0.44768 2.82681,-0.52869 2.2825,-0.20889 2.49167,-0.32797 2.49167,-1.4185 0,-1.11278 0.79597,-2.49206 1.88614,-3.26833 0.66221,-0.47153 1.07783,-0.54658 2.56103,-0.46241 3.29338,0.18689 5.07783,1.72088 5.07783,4.36514 0,1.82751 -0.80284,3.55459 -2.395,5.15216 -0.96041,0.96367 -1.51602,1.28863 -2.60116,1.52135 -1.53627,0.32947 -6.12129,0.33628 -8.76218,0.013 z m 6.96455,-1.29499 c 2.65974,-0.27983 4.44647,-1.01272 4.90101,-2.01032 0.78693,-1.72713 0.0368,-4.54455 -1.5016,-5.64 -0.92726,-0.66027 -2.99961,-1.15597 -3.8941,-0.93147 -0.88569,0.2223 -1.70736,1.32335 -1.70736,2.28791 0,0.71547 0.0671,0.77589 0.72761,0.65563 0.40018,-0.0729 1.38076,-0.38402 2.17907,-0.69149 0.79831,-0.30746 1.52405,-0.55902 1.61275,-0.55902 0.31186,0 -0.42447,2.27236 -0.94755,2.9242 -0.65839,0.82045 -4.01171,2.45264 -5.95313,2.89761 -0.80036,0.18345 -1.69333,0.46663 -1.98437,0.6293 -0.45009,0.25157 -0.29194,0.31877 1.05833,0.44972 2.55376,0.24767 3.05083,0.24658 5.50934,-0.0121 z m -10.78148,-16.18077 c 0.16411,-0.26554 -0.6938,-0.313 -1.31928,-0.073 -0.22935,0.088 -0.36099,0.25064 -0.29254,0.36139 0.15574,0.25199 1.41735,0.0262 1.61182,-0.28841 z M 183.97809,7.4687442 c 0.48808,-0.663135 0.78574,-1.303852 0.66146,-1.423818 -0.12428,-0.119965 -0.79151,-0.152586 -1.48273,-0.07249 -1.09367,0.126729 -1.25677,0.224771 -1.25677,0.755453 0,0.898675 0.46661,1.968705 0.85334,1.956875 0.18551,-0.006 0.73662,-0.55289 1.2247,-1.21602 z M 57.465774,34.028934 c 0.05874,-0.76399 0.219857,-1.88827 0.358036,-2.49842 0.288602,-1.27434 0.324088,-4.42944 0.079,-7.02442 l -0.168469,-1.78378 -1.483296,0.16495 c -0.815813,0.0907 -2.852515,0.5838 -4.526004,1.09573 -1.67349,0.51193 -3.575141,1.07413 -4.225892,1.24934 -1.391686,0.3747 -2.23112,1.55486 -2.163677,3.04191 0.03554,0.78357 -0.16792,1.14209 -1.322428,2.33028 -2.036749,2.09619 -2.711981,2.35469 -6.658437,2.54907 -3.797153,0.18703 -4.352632,0.0262 -5.393464,-1.56161 -1.3477,-2.05594 -0.941818,-4.3079 1.118773,-6.20728 0.902546,-0.83194 1.381972,-1.07921 2.092449,-1.07921 1.052621,0 2.000593,0.82002 2.000593,1.73055 0,0.68605 -1.030162,2.27908 -1.5875,2.4549 -0.312007,0.0984 -0.297862,0.0135 0.06615,-0.39732 1.077216,-1.21561 -0.0076,-2.684 -1.742455,-2.35854 -1.558617,0.2924 -2.47334,1.8331 -2.12434,3.5781 0.21922,1.0961 1.317645,1.8396 3.161012,2.13961 2.937221,0.47805 5.555459,-0.71493 6.905788,-3.14656 0.709356,-1.27739 0.659022,-1.91575 -0.134689,-1.70819 -0.614928,0.1608 -1.021764,-0.36433 -0.605075,-0.78102 0.161945,-0.16195 0.298233,-0.71712 0.302861,-1.23372 0.01067,-1.19067 0.505167,-1.84095 1.91494,-2.5182 1.066515,-0.51235 1.119354,-0.59302 1.119354,-1.70893 v -1.17119 l -1.893425,-0.46543 c -1.777331,-0.43689 -3.923836,-1.38185 -4.876378,-2.14675 -0.614806,-0.49369 -1.035406,-1.39264 -1.035406,-2.21296 0,-0.93984 1.186871,-2.48977 1.906556,-2.48977 0.522571,0 0.529858,0.0297 0.118826,0.48386 -0.275906,0.30487 -0.437882,0.94103 -0.437882,1.71979 0,1.08138 0.127538,1.36347 1.019857,2.25579 1.077299,1.0773 4.450175,2.61096 5.150819,2.3421 0.278554,-0.10689 0.435266,-0.82791 0.568294,-2.61467 0.176761,-2.37415 0.463428,-3.91574 0.96308,-5.17905 0.654048,-1.6536998 1.02184,-2.1840298 2.614748,-3.7703198 1.814749,-1.807199 3.798165,-2.944304 6.910597,-3.961884 0.929672,-0.303947 2.123243,-0.787021 2.652379,-1.073497 1.146291,-0.620606 1.641389,-0.653259 2.070229,-0.136538 0.186542,0.224769 0.903665,0.416997 1.727336,0.46302 l 1.408373,0.07869 -0.66016,2.090049 c -0.538857,1.706004 -0.603217,2.196449 -0.350261,2.6691 0.351687,0.65714 0.435915,3.7056298 0.24133,8.7345998 -0.124571,3.2195 -0.09885,3.46735 0.401962,3.87353 0.529866,0.42974 0.526772,0.44167 -0.319576,1.23228 -0.671265,0.62706 -0.842928,0.98808 -0.800108,1.68272 0.06564,1.06476 -0.749813,5.54357 -1.244893,6.83751 -0.194874,0.50932 -0.420406,1.49159 -0.501183,2.18282 -0.145308,1.24342 -0.138745,1.25677 0.618249,1.25677 0.420813,0 1.496525,-0.22764 2.39047,-0.50587 1.685283,-0.52452 1.973119,-0.32252 0.786358,0.55185 -0.36396,0.26815 -1.566636,0.60608 -2.761442,0.77592 -1.590605,0.2261 -2.284659,0.45726 -2.792603,0.93011 -0.371764,0.34608 -0.74124,0.62924 -0.821057,0.62924 -0.07982,0 -0.09706,-0.62508 -0.03832,-1.38907 z m -3.689183,-13.0714 c 1.770178,-0.11234 2.815855,-0.29609 3.00896,-0.52877 0.24598,-0.29639 -0.374208,-0.3566 -3.672795,-0.3566 -3.290289,0 -4.027918,0.0713 -4.314862,0.41704 -0.492644,0.5936 0.145205,0.9663 1.339652,0.78277 0.509323,-0.0783 2.146893,-0.21976 3.639045,-0.31444 z m 3.758695,-2.20262 c 0.487149,-0.26072 0.53976,-0.54263 0.53976,-2.89232 0,-1.4319 0.07008,-2.95385 0.155733,-3.38212 0.228333,-1.14166 -0.931294,-2.46248 -2.161968,-2.46248 -0.755581,0 -1.032141,0.18123 -1.714897,1.12374 -0.447719,0.61806 -0.990183,1.49495 -1.205476,1.94865 -0.215293,0.45369 -0.623631,1.07412 -0.907417,1.37873 -0.283786,0.30461 -0.515975,0.66579 -0.515975,0.80262 0,0.30533 -1.503603,3.18915 -1.93571,3.71257 -0.27051,0.32767 0.199715,0.35761 3.446471,0.21946 2.067846,-0.088 4.002611,-0.28997 4.299479,-0.44885 z m -7.662323,-7.17849 c 0.654843,-1.32502 1.559157,-2.8427998 2.009586,-3.3728398 0.864648,-1.01748 0.892514,-1.469405 0.11622,-1.884865 -0.394807,-0.211294 -0.625463,-0.0231 -1.381886,1.127515 -0.499388,0.75962 -1.178236,2.09551 -1.508551,2.9686298 -0.330315,0.87313 -0.710121,1.79425 -0.844013,2.04694 -0.133892,0.25268 -0.24344,0.69917 -0.24344,0.99218 0,1.14812 0.714943,0.42334 1.852084,-1.87756 z m 9.789583,-6.7178048 c 0,-0.218281 -0.178594,-0.396875 -0.396875,-0.396875 -0.218282,0 -0.396875,0.178594 -0.396875,0.396875 0,0.218281 0.178593,0.396875 0.396875,0.396875 0.218281,0 0.396875,-0.178594 0.396875,-0.396875 z m -4.757194,-0.270977 c 0.184076,-0.221798 0.262004,-0.475949 0.173173,-0.56478 -0.21217,-0.21217 -1.765979,0.435022 -1.765979,0.735565 0,0.390901 1.236698,0.258299 1.592806,-0.170785 z M 157.95526,34.915854 c -1.33889,-0.34256 -2.44261,-1.03641 -3.088,-1.94126 -0.5761,-0.80771 -0.61617,-1.10969 -0.61617,-4.64347 v -3.77958 l -0.85083,-0.54014 c -0.46795,-0.29708 -1.09759,-0.93943 -1.3992,-1.42744 -0.30161,-0.48801 -0.93077,-1.2327 -1.39814,-1.65485 -0.46736,-0.42214 -0.98124,-0.99602 -1.14195,-1.27527 -0.23187,-0.40289 -0.64488,-0.52364 -2.00017,-0.58481 l -1.70797,-0.0771 -0.57721,1.26771 c -0.31793,0.69826 -0.53325,1.61208 -0.47933,2.03433 0.0538,0.42164 0.005,1.13602 -0.10863,1.5875 -0.11358,0.45149 -0.27773,1.40301 -0.36476,2.1145 l -0.15825,1.29363 1.25676,-0.16237 c 0.69122,-0.0893 1.55442,-0.23153 1.91822,-0.31606 0.52443,-0.12186 0.46962,-0.0433 -0.26458,0.379 -0.50933,0.29299 -1.31199,0.5377 -1.7837,0.5438 -0.55228,0.007 -0.97125,0.193 -1.17671,0.52198 -0.29453,0.47163 -0.38871,0.4818 -1.22518,0.13229 -0.49837,-0.20823 -1.35295,-0.3786 -1.89907,-0.3786 -0.54612,0 -1.39478,-0.0893 -1.88592,-0.19843 -0.77229,-0.17163 -0.64268,-0.21632 0.95912,-0.33073 l 1.85208,-0.1323 -0.0384,-1.95801 c -0.0469,-2.38774 -0.56024,-5.023 -1.10064,-5.64983 -0.29214,-0.33887 -0.33277,-0.62444 -0.1506,-1.05833 0.25707,-0.61232 0.19496,-1.27383 -0.56507,-6.0182 -0.30331,-1.89339 -0.60547,-2.9520798 -0.9488,-3.3243398 -0.55452,-0.60128 -0.66516,-1.70008 -0.21636,-2.14888 0.29479,-0.29479 0.0798,-3.165553 -0.25217,-3.366375 -0.0921,-0.05574 -0.80343,-10e-5 -1.58066,0.123652 -1.23144,0.196072 -1.48572,0.157396 -1.97751,-0.300771 -0.84035,-0.782902 -0.3271,-1.41253 1.23495,-1.51497 0.67632,-0.04435 1.22967,0.03383 1.22967,0.173746 0,0.139913 1.10133,0.334942 2.44739,0.433397 2.14641,0.156994 2.59383,0.111937 3.63802,-0.366372 0.65485,-0.29996 1.60735,-0.547616 2.11667,-0.550347 1.90045,-0.01019 5.77492,0.859507 8.40547,1.886767 4.22113,1.648398 6.04926,3.740303 5.49078,6.283043 -0.23332,1.0622998 -2.04256,2.6381198 -4.4553,3.8804998 -3.52781,1.81655 -3.8847,2.02075 -3.8847,2.22273 0,0.11082 0.68461,0.45707 1.52135,0.76946 1.83919,0.68664 2.21609,0.96251 2.94209,2.15344 0.44335,0.72727 0.56187,1.34912 0.56265,2.95199 l 9.9e-4,2.03063 2.31096,2.02584 c 1.27102,1.11422 2.92571,2.31668 3.67708,2.67213 1.74767,0.82678 2.08176,1.25064 2.08176,2.64115 0,0.89697 -0.16513,1.30583 -0.79375,1.96538 -1.29718,1.36098 -3.75101,2.07211 -5.55625,1.61023 z m 3.40365,-0.65642 c 1.15072,-0.4808 2.02128,-1.62389 2.01625,-2.64743 -0.006,-1.26743 -0.16421,-1.43385 -2.5778,-2.71549 -0.83104,-0.44129 -0.88819,-0.43834 -1.5875,0.0818 -0.92737,0.68981 -1.02592,1.39196 -0.32113,2.28796 0.79265,1.00768 1.80654,0.96877 2.01577,-0.0774 0.1684,-0.84199 0.62263,-0.84052 0.62263,0.002 0,1.38596 -3.66241,1.37569 -4.10269,-0.0115 -0.20942,-0.6598 0.25709,-1.69722 1.04022,-2.31323 0.86244,-0.6784 0.85646,-0.93951 -0.0322,-1.40717 -0.39239,-0.20649 -1.01077,-0.64859 -1.37416,-0.98244 -1.02286,-0.9397 -1.63342,-0.67884 -2.04002,0.87159 -1.15833,4.41692 0.45832,7.20964 4.20227,7.25927 0.6959,0.009 1.65818,-0.1474 2.13839,-0.34804 z m -7.5047,-13.35287 c 0,-1.4544 -3.65643,-4.67449 -4.42978,-3.90115 -0.22272,0.22273 3.64875,4.12508 4.09243,4.12508 0.18555,0 0.33735,-0.10077 0.33735,-0.22393 z m -5.68854,-6.1347 c 1.85582,-0.88858 2.9669,-2.00703 3.55481,-3.57837 0.65753,-1.7573898 0.67866,-2.4213198 0.12141,-3.8140298 -0.37104,-0.927317 -0.58954,-1.110652 -1.7259,-1.448114 -3.07191,-0.91226 -6.24505,-0.738741 -6.84061,0.37407 -0.37082,0.692877 -0.33676,1.402214 0.0957,1.993654 0.34626,0.47355 0.39956,0.47612 1.04902,0.0506 1.73887,-1.13936 2.26964,-0.12295 1.65449,3.1682898 -0.64582,3.45537 -0.6777,3.71288 -0.48373,3.90685 0.23473,0.23474 1.26831,-0.0274 2.57479,-0.65293 z m 7.17949,-3.73739 c 0.70016,-0.76796 0.95091,-1.5621598 0.64638,-2.0472198 -0.34874,-0.5555 -1.00686,-0.16456 -1.1995,0.71252 -0.0937,0.4267298 -0.40869,1.0316298 -0.69991,1.3442198 -0.60794,0.65255 -0.4466,1.22193 0.24116,0.85109 0.24583,-0.13255 0.70117,-0.51982 1.01187,-0.86061 z m 11.89386,22.01934 c -0.0437,-0.0821 -0.0481,-0.68257 -0.01,-1.33427 0.0427,-0.7252 -0.10037,-1.49508 -0.36878,-1.98438 -0.37531,-0.68415 -0.44509,-1.86235 -0.48376,-8.16844 -0.0433,-7.06588 -0.0678,-7.39306 -0.59531,-7.95455 -0.72377,-0.77041 -0.75381,-3.44423 -0.0615,-5.4709898 0.26875,-0.78676 0.55508,-1.936497 0.63628,-2.554961 l 0.14763,-1.124479 -1.76076,-0.03347 -1.76076,-0.03347 1.83953,-0.235802 c 1.01175,-0.129691 2.08711,-0.398017 2.38969,-0.596279 0.30259,-0.198263 1.24354,-0.579046 2.091,-0.846185 1.49636,-0.471685 1.55114,-0.471618 1.89769,0.0023 0.22538,0.308233 0.55456,0.436317 0.89352,0.347676 0.45871,-0.119953 0.49755,-0.06723 0.26738,0.362852 -0.14812,0.276758 -0.43097,0.503196 -0.62856,0.503196 -0.51102,0 -0.61305,0.404762 -0.80747,3.203312 -0.095,1.36688 -0.28812,3.0903698 -0.42926,3.8299898 -0.25168,1.31894 0.17342,8.06113 0.79937,12.67816 0.34818,2.5682 0.77487,5.57246 1.01461,7.14375 l 0.20185,1.32291 1.9822,0.14772 c 1.66004,0.12371 3.43923,0.55749 3.43677,0.83792 -0.001,0.14499 -10.61428,0.10279 -10.69164,-0.0425 z m 4.42342,-1.42275 c -0.0977,-0.15806 -0.20685,-0.53153 -0.24259,-0.82992 -0.25825,-2.15652 -1.09105,-4.00844 -1.58186,-3.51762 -0.23304,0.23304 0.39531,2.84026 0.86474,3.58811 0.2857,0.45515 0.30926,0.70405 0.0915,0.96646 -0.218,0.26267 -0.20556,0.3849 0.0484,0.47593 0.45814,0.16421 1.04249,-0.32262 0.81979,-0.68296 z m -95.463438,-2.06527 c -2.295289,-0.3919 -3.291316,-0.44521 -4.712609,-0.25221 -1.190902,0.16171 -2.069031,0.1517 -2.588879,-0.0295 -0.432677,-0.15083 -1.076603,-0.21882 -1.430945,-0.15108 -0.4164,0.0796 -0.582047,0.0225 -0.468356,-0.16146 0.09675,-0.15654 0.194592,-1.06208 0.217432,-2.0123 0.02462,-1.02417 0.288248,-2.42799 0.64742,-3.44748 0.33324,-0.94588 0.690424,-2.37463 0.793743,-3.175 0.103318,-0.80036 0.465547,-2.50771 0.804952,-3.79411 0.494511,-1.87427 0.554849,-2.43858 0.303734,-2.84068 -0.453384,-0.72598 -0.411101,-1.01144 0.612675,-4.1362898 1.369988,-4.181582 1.207499,-6.11447 -0.487418,-5.798103 -0.580923,0.108433 -0.708942,0.08084 -0.420149,-0.09057 0.228442,-0.135585 0.942817,-0.271816 1.5875,-0.302735 1.457127,-0.06988 2.05815,-0.360245 2.353465,-1.136982 0.25325,-0.666098 1.886479,-1.563782 2.599471,-1.428767 0.302308,0.05725 0.481374,0.392409 0.539378,1.009571 0.04776,0.508131 0.265914,1.122669 0.484793,1.36564 0.359459,0.399025 0.339772,0.450222 -0.203484,0.529167 -0.439067,0.0638 -0.661748,0.337414 -0.824804,1.013442 -0.122847,0.509323 -0.329276,1.164167 -0.45873,1.455209 -0.262072,0.589196 -0.509776,1.648328 -0.711611,3.042708 -0.07372,0.50932 -0.328178,1.3427598 -0.565453,1.8520798 -0.237274,0.50933 -0.522224,1.75948 -0.633222,2.77813 -0.371609,3.41033 -0.715845,6.0704 -1.027181,7.9375 -0.169857,1.01864 -0.324951,2.32833 -0.344652,2.91041 l -0.03582,1.05834 1.284411,-0.0669 c 1.682093,-0.0877 4.919487,-1.06131 5.611808,-1.68777 0.30042,-0.27185 0.675467,-0.49427 0.833437,-0.49427 0.15797,0 0.703937,-0.41671 1.21326,-0.92604 0.509323,-0.50932 1.181985,-0.92604 1.494806,-0.92604 0.78217,0 1.863274,0.60127 2.692969,1.49773 1.026817,1.10945 1.2891,1.76221 1.2891,3.20825 0,1.46475 -0.761903,2.86655 -1.860025,3.4222 -0.940642,0.47598 -5.138244,0.36748 -8.591017,-0.22205 z m 7.622151,-1.18289 c 1.223045,-0.41674 2.564307,-1.65771 2.564307,-2.37256 0,-0.93289 -0.905921,-2.54302 -1.64618,-2.92582 -0.657879,-0.3402 -0.999731,-0.35582 -2.085787,-0.0953 -1.559939,0.37422 -2.433606,1.30163 -2.179602,2.31366 0.117805,0.46937 0.07687,0.61274 -0.13718,0.48046 -0.176089,-0.10883 -0.670608,0.199 -1.169535,0.72801 -0.514342,0.54537 -1.317237,1.03851 -1.982454,1.21763 -0.614906,0.16558 -1.118011,0.40834 -1.118011,0.53946 0,0.58944 6.09634,0.67941 7.754442,0.11443 z m -2.497217,-1.93543 -0.62223,-0.50385 1.26086,0.14212 c 0.98158,0.11063 1.377129,0.0369 1.785779,-0.33293 0.482672,-0.43681 0.492307,-0.52482 0.11971,-1.09348 -0.358553,-0.54722 -0.35939,-0.61842 -0.0073,-0.61842 0.218863,0 0.47773,0.31793 0.57526,0.70652 0.145127,0.57823 0.02517,0.84248 -0.660591,1.45521 -0.981686,0.87714 -1.595003,0.93839 -2.451512,0.24483 z m -10.945345,-1.02155 c 0.585877,-0.42976 0.901253,-1.64157 1.066245,-4.09699 0.167775,-2.49684 0.155555,-2.57969 -0.380516,-2.57969 -0.34789,0 -0.556988,0.17219 -0.562274,0.46302 -0.0046,0.25466 -0.183222,0.69414 -0.396875,0.97661 -0.213653,0.28248 -0.389194,0.75873 -0.39009,1.05834 -8.97e-4,0.2996 -0.17949,0.88577 -0.396875,1.30258 -0.882958,1.693 -0.125933,3.74631 1.060385,2.87613 z M 98.424,29.562944 c -2.12757,-0.37572 -3.44417,-0.4666 -4.89479,-0.33787 -1.95814,0.17376 -2.27621,0.17851 -4.101041,0.0612 l -0.926042,-0.0595 0.0039,-2.39448 c 0.0025,-1.56097 0.15602,-2.80893 0.441,-3.5851 0.240433,-0.65485 0.530481,-2.02407 0.644553,-3.04271 0.114072,-1.01865 0.33742,-2.38787 0.49633,-3.04271 0.49447,-2.03762 0.62944,-3.70417 0.30001,-3.70417 -0.47761,0 -0.34757,-1.30621 0.34833,-3.4988298 1.00295,-3.160076 1.53456,-5.476544 1.36075,-5.929478 -0.12906,-0.33632 -0.4647,-0.385348 -1.81048,-0.264462 -1.251346,0.112403 -1.42744,0.09174 -0.726011,-0.08518 0.509321,-0.128468 1.513231,-0.296647 2.230911,-0.373731 0.78867,-0.08471 1.39605,-0.303078 1.53535,-0.552001 0.60911,-1.088419 1.4387,-1.730764 2.31916,-1.795711 0.88746,-0.06546 0.92937,-0.02849 1.006,0.887703 0.0613,0.733155 0.24635,1.037926 0.79375,1.307408 l 0.71379,0.351395 -0.66146,0.107007 c -0.96056,0.155392 -1.25231,0.484667 -1.40684,1.587791 -0.0757,0.540129 -0.27336,1.517834 -0.43934,2.172679 -0.16597,0.65484 -0.41108,3.3337498 -0.54469,5.9531198 -0.13361,2.61938 -0.37178,5.8936 -0.52926,7.27604 -0.15749,1.38245 -0.35028,3.07909 -0.42843,3.77032 l -0.1421,1.25677 h 0.85691 c 1.52917,0 4.55964,-1.06573 5.72099,-2.0119 0.60658,-0.49419 1.26142,-0.89819 1.45521,-0.89778 0.19379,4e-4 0.83705,-0.25598 1.42947,-0.56974 1.30855,-0.69304 2.10486,-0.55091 3.42946,0.6121 1.29648,1.13833 1.71113,2.05661 1.71113,3.78953 0,1.66988 -0.47085,2.60139 -1.61366,3.19235 -1.04063,0.53814 -4.97377,0.45554 -8.57281,-0.18003 z m 8.24159,-1.52718 c 0.6038,-0.34252 1.24144,-0.8911 1.41697,-1.21909 0.65043,-1.21534 -0.54595,-3.58141 -1.99477,-3.94504 -0.93809,-0.23544 -2.57853,0.2583 -3.32888,1.00193 -0.34691,0.3438 -0.86886,0.7045 -1.1599,0.80156 -0.29104,0.0971 -0.85792,0.65237 -1.25972,1.23401 -0.76908,1.1133 -1.53028,1.54601 -3.18193,1.8088 -0.55113,0.0877 -1.02738,0.2785 -1.05833,0.42402 -0.0721,0.33915 3.12133,0.60397 6.6906,0.55482 2.38714,-0.0329 2.93263,-0.12591 3.87596,-0.66101 z m -3.53047,-1.76186 c -0.58867,-0.53718 -0.62272,-0.61934 -0.16444,-0.39688 0.90385,0.43878 2.33007,0.33878 2.8153,-0.19739 0.39094,-0.43198 0.39344,-0.53374 0.026,-1.05833 -0.36568,-0.52209 -0.36565,-0.58039 3.2e-4,-0.58039 0.22376,0 0.48349,0.3054 0.57717,0.67867 0.13145,0.52374 4.9e-4,0.85596 -0.57363,1.45521 -0.91527,0.95534 -1.71021,0.98473 -2.68072,0.0991 z m -10.28901,-0.54151 c 0.34917,-0.13399 0.41852,-0.68199 0.41852,-3.30729 0,-3.17601 -0.24755,-3.9003 -0.82681,-2.41909 -0.51866,1.32627 -0.84579,4.56371 -0.53096,5.25469 0.31637,0.69437 0.33482,0.70363 0.93925,0.47169 z m 30.58102,3.82701 c -1.0914,-0.14403 -3.05594,-0.20883 -4.36562,-0.14401 -1.30969,0.0648 -3.0361,0.0365 -3.83646,-0.0629 -1.44278,-0.17918 -1.449,-0.18379 -0.72761,-0.53968 0.94271,-0.46509 0.91944,-0.71902 -0.0862,-0.93988 l -0.81376,-0.17874 0.12096,-1.89281 c 0.29065,-4.54847 0.48526,-6.51575 0.82848,-8.3751 0.45606,-2.47063 0.12013,-4.52912 -1.82346,-11.1737528 -0.48789,-1.667964 -0.62239,-1.808461 -1.98738,-2.075926 -0.71611,-0.140318 -0.47042,-0.190551 1.04935,-0.214546 1.0914,-0.01723 3.32852,-0.157243 4.97137,-0.311136 2.82232,-0.264378 3.08273,-0.339828 4.72337,-1.368507 1.65388,-1.036976 1.87687,-1.100396 4.69346,-1.33483 2.48748,-0.207042 3.11558,-0.179902 3.95517,0.170901 l 0.99809,0.417028 -0.0796,1.52924 c -0.079,1.517893 -0.0855,1.528869 -0.87333,1.479267 -0.43657,-0.02749 -1.16423,-0.127877 -1.61703,-0.223093 l -0.82328,-0.173121 -0.23295,1.942885 -0.23295,1.942881 -0.0801,-1.931077 c -0.0569,-1.370691 -0.18952,-1.973068 -0.45716,-2.07577 -0.32125,-0.123275 -2.99572,0.197517 -4.75862,0.570777 -0.72591,0.153698 -1.88623,2.099746 -2.20649,3.70066 -0.14556,0.7276 -0.52293,2.2754098 -0.8386,3.4395798 -0.31567,1.16417 -0.5931,2.35479 -0.61651,2.64583 -0.0649,0.8066 1.00693,0.82725 1.94551,0.0375 0.93633,-0.78786 3.75037,-1.46468 6.58941,-1.58485 1.62216,-0.0687 2.047,0.001 2.44739,0.40141 0.54399,0.54399 0.60859,1.182 0.22251,2.19749 -0.2076,0.54602 -0.41362,0.6732 -0.99219,0.61253 -0.54375,-0.057 -0.72187,0.0353 -0.69761,0.36145 0.0238,0.32055 -0.26913,0.48326 -1.09251,0.60673 -1.30062,0.19504 -6.80018,0.66439 -7.85945,0.67074 -0.39452,0.002 -0.96006,0.26488 -1.25677,0.58337 -0.58974,0.633 -0.69718,2.34156 -0.36705,5.83709 l 0.16868,1.78593 2.40913,0.002 c 1.32503,10e-4 3.18304,-0.17703 4.12893,-0.39611 0.94588,-0.21908 2.16627,-0.4636 2.71198,-0.54338 0.84203,-0.12309 0.99218,-0.24474 0.99218,-0.80382 0,-1.32062 1.80762,-3.02321 3.20623,-3.01993 2.18723,0.005 3.93752,1.30312 3.93752,2.92001 0,1.7523 -1.66166,4.21742 -3.49744,5.18853 -1.05067,0.5558 -4.90298,0.7117 -7.87964,0.31889 z m 8.21415,-1.34371 c 1.24949,-0.53067 1.84002,-1.4939 1.84002,-3.00131 0,-1.04194 -0.1353,-1.36169 -0.89959,-2.12597 -0.78447,-0.78448 -1.06978,-0.89959 -2.22975,-0.89959 -1.12187,0 -1.41605,0.10917 -1.87854,0.69714 -0.30161,0.38343 -0.54837,0.85968 -0.54837,1.05834 0,0.47497 1.09331,0.46423 2.25745,-0.0222 0.88614,-0.37025 1.17706,-0.25639 0.67537,0.26431 -0.1332,0.13824 -0.28203,0.54901 -0.33073,0.91281 -0.11176,0.83482 -2.56867,2.20217 -4.7849,2.66296 -1.03801,0.21581 -1.52136,0.44281 -1.52136,0.71448 0,0.33993 0.47407,0.3791 3.24115,0.2678 2.01915,-0.0812 3.59483,-0.28058 4.17925,-0.52879 z m -9.46588,-11.75667 c -0.17914,-0.0725 -0.53632,-0.0769 -0.79375,-0.01 -0.25743,0.0671 -0.11087,0.12639 0.32569,0.13178 0.43656,0.005 0.64719,-0.0495 0.46806,-0.12197 z M 117.68909,5.3071622 c 0.39103,-0.408145 0.71096,-0.824864 0.71096,-0.926041 0,-0.101178 -0.53578,-0.18396 -1.19063,-0.18396 -1.18432,0 -1.19062,0.0049 -1.19062,0.926041 0,1.173621 0.65321,1.245563 1.67029,0.18396 z"
       style="fill:#01ff01;fill-opacity:1"
       id="path1" /></g></svg>
